PathFileType	4	(X/Y/Z)	D:\Long Term Storage\D'Arcy Smith\Coord15.trc
DataRate	CameraRate	NumFrames	NumMarkers	Units	OrigDataRate	OrigDataStartFrame	OrigNumFrames
120.00	120.00	      48	4	mm	120.00	4236	      4841
Frame#	Time	M1			M2			M3			M4			
		X1	Y1	Z1	X2	Y2	Z2	X3	Y3	Z3	X4	Y4	Z4	

4236	35.292	1079.43140	374.57681	175.42900	1648.19495	387.59091	188.85715							
4237	35.300	1078.12903	371.04080	179.67101	1648.62439	379.64145	197.94049							
4238	35.308	1076.62671	367.24045	184.53555	1648.92993	371.72379	207.57533							
4239	35.317	1075.09473	363.10428	189.98430	1649.44849	363.87320	218.14664							
4240	35.325	1073.39954	358.73782	195.94037	1649.61279	356.01013	229.10846							
4241	35.333	1071.91565	353.65723	202.85010	1649.89050	348.26599	240.65501							
4242	35.342	1070.05688	349.43454	209.85112	1650.00647	340.74170	252.71762							
4243	35.350	1068.22510	344.63486	217.78822	1649.90564	333.79047	264.91180							
4244	35.358	1066.59851	339.64938	226.45993	1649.81970	326.64777	277.94296							
4245	35.367	1064.51233	334.67038	235.46399	1649.71692	320.14139	291.53375							
4246	35.375	1062.31702	330.13992	245.91248	1649.39929	314.50684	305.27423							
4247	35.383	1060.92822	324.67325	255.80788	1648.66895	308.54755	320.10123							
4248	35.392	1058.34387	320.52094	266.53741	1647.94238	303.92285	334.76157							
4249	35.400	1056.28723	316.13666	278.04718	1647.90479	299.88937	349.16501							
4250	35.408	1054.12720	311.85147	289.96573	1647.40967	296.18341	364.26941							
4251	35.417	1051.93152	307.88431	302.56482	1646.77673	292.90451	379.29651							
4252	35.425	1049.69482	304.24609	315.26608	1645.99023	290.15756	394.39740							
4253	35.433	1047.52747	301.23517	328.92856	1645.38623	287.99289	409.52057							
4254	35.442	1045.44702	298.40198	342.44785	1644.87903	286.48849	424.29742							
4255	35.450	1044.08569	295.50766	356.38446	1643.84717	285.82922	438.76721							
4256	35.458	1043.00745	293.81396	369.73343	1643.14197	285.14874	452.97983							
4257	35.467	1040.93811	292.47061	383.78204	1642.62744	285.82840	466.32968							
4258	35.475	1039.80115	291.46991	397.22525	1641.82312	286.64639	479.92731							
4259	35.483	1038.43188	291.07043	410.34329	1641.22595	287.05679	492.30518							
4260	35.492	1037.19714	290.87491	423.32718	1640.10571	288.90628	503.41037							
4261	35.500	1036.50183	291.16736	435.37015	1639.32910	290.54007	513.63733							
4262	35.508	1035.61987	292.00873	447.03799	1638.52344	292.30011	522.76080							
4263	35.517	1034.75439	292.95306	458.09128	1637.79102	293.98932	530.63074							
4264	35.525	1034.19214	294.29297	467.86612	1637.00049	295.64084	537.60651							
4265	35.533	1033.80005	295.65198	477.16025	1636.25293	297.12872	542.83630							
4266	35.542	1034.04260	296.79092	485.44318	1635.56287	298.35928	547.00189							
4267	35.550	1033.97693	298.31668	492.55804	1634.67920	299.65326	549.81390							
4268	35.558	1033.74451	300.02264	498.48749	1634.25793	299.95770	551.20782							
4269	35.567	1033.65430	301.18347	502.83652	1633.74878	300.21616	551.28107							
4270	35.575	1033.88708	302.21921	506.44269	1633.30286	300.15198	550.03357							
4271	35.583	1034.21484	302.86069	509.06281	1633.01697	299.85226	547.34570							
4272	35.592	1034.35413	303.35880	510.49252	1632.59790	299.15787	543.47638							
4273	35.600	1034.68579	303.55893	510.79788	1632.28845	298.25949	538.53949							
4274	35.608	1034.96704	303.66217	510.10931	1632.11267	297.18692	532.61078							
4275	35.617	1035.37048	303.51132	508.52762	1631.87024	296.04053	525.43964							
4276	35.625	1035.68921	303.27737	505.87497	1631.69348	294.89063	517.44135							
4277	35.633	1036.37451	302.98669	502.32776	1631.39795	293.74478	508.76428							
4278	35.642	1036.82117	302.42218	498.53748	1631.26709	292.76935	499.26663							
4279	35.650	1037.96436	301.32684	493.93689	1631.20288	291.93896	489.14072							
4280	35.658	1038.61548	300.80820	488.14276	1630.88049	291.71814	478.53531							
4281	35.667	1039.69214	300.18680	482.12714	1630.85254	291.37039	466.57251							
4282	35.675	1040.65015	299.69485	475.44620	1630.56616	291.29736	454.64624							
4283	35.683	1041.69250	299.23834	468.41794	1630.26892	291.59189	442.55618							
